<?xml version="1.0" encoding="utf-8"?>
<!-- Generator: Adobe Illustrator 22.0.1, SVG Export Plug-In . SVG Version: 6.00 Build 0)  -->
<svg version="1.1" id="Capa_1" xmlns="http://www.w3.org/2000/svg" xmlns:xlink="http://www.w3.org/1999/xlink" x="0px" y="0px"
	 viewBox="0 0 477.9 477.9" style="enable-background:new 0 0 477.9 477.9;" xml:space="preserve">
<style type="text/css">
	.st0{fill:#FFFFFF;}
</style>
<g>
	<g>
		<path class="st0" d="M387.4,233.5c49-44,53-119.4,9-168.4C356,20.2,288.4,12.5,239,47.3C185.2,9.3,110.8,22.2,72.8,76
			c-34.9,49.4-27.3,117.1,17.7,157.5C34.6,262.9-0.3,321,0,384.1v51.2c0,9.4,7.6,17.1,17.1,17.1h443.7c9.4,0,17.1-7.6,17.1-17.1
			v-51.2C478.1,321,443.3,262.9,387.4,233.5z M307.2,59.8c47.1-0.1,85.3,38.1,85.3,85.1c0,33.6-19.6,64-50.2,77.8
			c-1.3,0.6-2.6,1.1-4,1.7c-4.2,1.7-8.6,3.1-13,4c-0.9,0.2-1.7,0.3-2.6,0.5c-5,0.9-10,1.5-15,1.5c-2.3,0-4.6-0.2-6.8-0.4
			c-0.9,0-1.7,0-2.6-0.2c-9.7-1.1-19.1-3.9-27.9-8.2c-0.3-0.2-0.7-0.1-1-0.3c-1.7-0.8-3.4-1.5-4.9-2.5c0.1-0.2,0.2-0.4,0.4-0.5
			c7.8-10.1,14-21.3,18.3-33.3l0.5-1.4c1.9-5.7,3.5-11.6,4.5-17.6c0.2-0.9,0.3-1.7,0.4-2.6c1-6.1,1.5-12.2,1.6-18.3
			c0-6.1-0.6-12.3-1.6-18.3c-0.1-0.9-0.3-1.7-0.4-2.6c-1.1-6-2.6-11.8-4.5-17.6l-0.5-1.4c-4.3-12-10.5-23.2-18.3-33.3
			c-0.1-0.2-0.2-0.4-0.4-0.5C277.4,63.8,292.2,59.8,307.2,59.8z M85.3,145.2c-0.1-47,37.9-85.2,84.9-85.3c22-0.1,43.2,8.4,59.1,23.7
			c1,1,2,1.9,2.9,2.9c2.9,3.1,5.6,6.4,8.1,9.8c0.8,1.1,1.4,2.2,2.1,3.3c2.4,3.7,4.5,7.5,6.3,11.5c0.4,1,0.8,2,1.1,2.9
			c1.8,4.4,3.2,9,4.2,13.7c0.1,0.5,0.2,1,0.3,1.6c2.2,10.6,2.2,21.5,0,32.1c-0.1,0.5-0.1,1-0.3,1.6c-1,4.7-2.4,9.2-4.2,13.7
			c-0.4,1-0.7,2-1.1,2.9c-1.8,4-3.9,7.8-6.3,11.5c-0.7,1.1-1.4,2.2-2.1,3.3c-2.5,3.5-5.2,6.7-8.1,9.8c-1,1-1.9,1.9-2.9,2.9
			c-6.9,6.6-14.9,12-23.6,15.9c-1.4,0.6-2.8,1.2-4.2,1.7c-4.1,1.6-8.3,2.9-12.7,3.9c-1.1,0.2-2.2,0.4-3.3,0.6
			c-4.6,0.9-9.3,1.3-14,1.4h-1.9c-4.7-0.1-9.4-0.6-14-1.4c-1.1-0.2-2.2-0.3-3.3-0.6c-4.3-1-8.6-2.3-12.7-3.9
			c-1.4-0.6-2.8-1.1-4.2-1.7C105,209.1,85.4,178.7,85.3,145.2z M307.2,418.2H34.1v-34.1c-0.3-57.8,36.2-109.5,90.8-128.6
			c29.3,12.2,62.2,12.2,91.5,0c5.7,2.1,11.3,4.5,16.6,7.4c3.6,1.8,6.8,3.9,10.2,6c2.2,1.4,4.5,2.7,6.6,4.3c3.3,2.3,6.4,4.9,9.5,7.5
			c2,1.7,3.9,3.4,5.8,5.1c2.8,2.7,5.5,5.5,8,8.4c1.8,2.1,3.6,4.2,5.3,6.4c2.2,2.9,4.4,5.8,6.3,8.8c1.7,2.6,3.2,5.2,4.7,7.9
			c1.7,2.9,3.3,5.9,4.7,8.9c1.4,3.1,2.7,6.4,3.9,9.7c1.1,2.8,2.2,5.6,3.1,8.5c1.2,4,2,8.1,2.9,12.2c0.5,2.4,1.2,4.8,1.6,7.3
			c1,6.8,1.5,13.6,1.6,20.4L307.2,418.2L307.2,418.2z M443.7,418.2H341.3v-34.1c0-5.3-0.3-10.6-0.8-15.9c-0.1-1.5-0.4-3.1-0.5-4.6
			c-0.5-3.8-1-7.5-1.7-11.2c-0.3-1.6-0.6-3.2-1-4.8c-0.8-3.8-1.8-7.6-2.9-11.3c-0.4-1.2-0.7-2.5-1.1-3.7
			c-4.8-15.3-11.7-29.8-20.6-43.1l-0.7-1c-2.9-4.4-6.1-8.6-9.4-12.6l-0.1-0.2c-3.4-4.2-7.1-8.3-11-12.2c0.2,0,0.5,0,0.7,0
			c4.8,0.6,9.7,1,14.5,1h0.9c4.5,0,9-0.3,13.4-0.9c1.4-0.2,2.8-0.4,4.2-0.6c3.6-0.6,7.2-1.3,10.8-2.2c1-0.3,2-0.5,3.1-0.8
			c4.6-1.3,9.2-2.8,13.7-4.6c54.6,19.1,91.1,70.8,90.8,128.6L443.7,418.2L443.7,418.2z"/>
	</g>
</g>
</svg>
