<?xml version="1.0" encoding="utf-8"?>
<!-- Generator: Adobe Illustrator 22.0.1, SVG Export Plug-In . SVG Version: 6.00 Build 0)  -->
<svg version="1.1" id="Capa_1" xmlns="http://www.w3.org/2000/svg" xmlns:xlink="http://www.w3.org/1999/xlink" x="0px" y="0px"
	 viewBox="0 0 489.6 489.6" style="enable-background:new 0 0 489.6 489.6;" xml:space="preserve">
<style type="text/css">
	.st0{fill:#FFFFFF;}
</style>
<g>
	<g>
		<g>
			<path class="st0" d="M0,244.8c0,9.5,7.7,17.2,17.2,17.2h414.2L322.9,370.4c-3.3,3.3-5,7.7-5,12.1s1.7,8.8,5,12.1
				c6.7,6.7,17.6,6.7,24.3,0l137.6-137.7c6.4-6.4,6.4-17.8,0-24.3L347.1,95c-6.7-6.7-17.6-6.7-24.3,0c-6.7,6.7-6.7,17.6,0,24.3
				l108.4,108.4H17.1C7.6,227.6,0,235.3,0,244.8z"/>
		</g>
	</g>
</g>
</svg>
