<?xml version="1.0" encoding="utf-8"?>
<!-- Generator: Adobe Illustrator 22.0.1, SVG Export Plug-In . SVG Version: 6.00 Build 0)  -->
<svg version="1.1" id="Capa_1" xmlns="http://www.w3.org/2000/svg" xmlns:xlink="http://www.w3.org/1999/xlink" x="0px" y="0px"
	 viewBox="0 0 385 385" style="enable-background:new 0 0 385 385;" xml:space="preserve">
<g>
	<g id="Chevron_Right_Circle">
		<path d="M0,192.5C0,298.8,86.2,385,192.5,385C298.8,385,385,298.8,385,192.5C385,86.2,298.8,0,192.5,0C86.2,0,0,86.2,0,192.5z
			 M24.1,192.5c0-92.9,75.5-168.8,168.4-168.8s168.4,75.9,168.4,168.8s-75.5,168.4-168.4,168.4S24.1,285.4,24.1,192.5z"/>
		<path d="M135.9,183.7c-4.6,4.6-4.6,12.6,0,17.2l83,84.2c4.7,4.7,12.3,4.7,17,0c4.7-4.8,4.7-12.5,0-17.2l-74.5-75.6l74.5-75.6
			c4.7-4.8,4.7-12.4,0-17.2c-4.7-4.7-12.3-4.7-17,0L135.9,183.7z"/>
	</g>
</g>
</svg>
