<?xml version="1.0" encoding="utf-8"?>
<!-- Generator: Adobe Illustrator 22.0.1, SVG Export Plug-In . SVG Version: 6.00 Build 0)  -->
<svg version="1.1" id="Capa_1" xmlns="http://www.w3.org/2000/svg" xmlns:xlink="http://www.w3.org/1999/xlink" x="0px" y="0px"
	 viewBox="0 0 496 496" style="enable-background:new 0 0 496 496;" xml:space="preserve">
<style type="text/css">
	.st0{fill:#FFFFFF;}
</style>
<g>
	<g>
		<g>
			<path class="st0" d="M248,0C111,0,0,111,0,248c0.2,136.9,111.1,247.8,248,248c137,0,248-111,248-248S385,0,248,0z M248,480
				C119.9,480,16,376.1,16,248C16.1,119.9,119.9,16.1,248,16c128.1,0,232,103.9,232,232S376.1,480,248,480z"/>
			<path class="st0" d="M400,240H256V96c0-4.4-3.6-8-8-8s-8,3.6-8,8v144H96c-4.4,0-8,3.6-8,8s3.6,8,8,8h144v144c0,4.4,3.6,8,8,8
				s8-3.6,8-8V256h144c4.4,0,8-3.6,8-8S404.4,240,400,240z"/>
		</g>
	</g>
</g>
</svg>
