<?xml version="1.0" encoding="utf-8"?>
<!-- Generator: Adobe Illustrator 22.0.1, SVG Export Plug-In . SVG Version: 6.00 Build 0)  -->
<svg version="1.1" id="레이어_1" xmlns="http://www.w3.org/2000/svg" xmlns:xlink="http://www.w3.org/1999/xlink" x="0px"
	 y="0px" viewBox="0 0 480 385" style="enable-background:new 0 0 480 385;" xml:space="preserve">
<g id="레이어_3">
	<path d="M8.5,195h82.8c4.7,0,8.5-4.1,8.5-9l0,0c0-4.9-3.8-9-8.5-9H8.5c-4.7,0-8.5,4.1-8.5,9l0,0C0,190.9,3.8,195,8.5,195z"/>
	<path d="M8.5,257h108.4c4.7,0,8.5-4.1,8.5-9l0,0c0-4.9-3.8-9-8.5-9H8.5c-4.7,0-8.5,4.1-8.5,9l0,0C0,252.9,3.8,257,8.5,257z"/>
	<path d="M8.5,321h161.8c4.7,0,8.5-4.1,8.5-9l0,0c0-4.9-3.8-9-8.5-9H8.5c-4.7,0-8.5,4.1-8.5,9l0,0C0,316.9,3.8,321,8.5,321z"/>
	<path d="M8.5,385h363.2c4.7,0,8.5-4.1,8.5-9l0,0c0-4.9-3.8-9-8.5-9H8.5c-4.7,0-8.5,4.1-8.5,9l0,0C0,380.9,3.8,385,8.5,385z"/>
</g>
<g>
	<g>
		<path d="M125.4,153c0,40.7,15.8,78.9,44.6,107.6c28.7,28.7,67,44.6,107.6,44.6c37.2,0,72.3-13.2,100-37.5l84.5,84.5
			c2,2,4.7,3,7.4,3c2.7,0,5.3-1,7.4-3c4.1-4.1,4.1-10.6,0-14.7L392.3,253c24.2-27.7,37.5-62.9,37.5-100c0-40.7-15.8-78.9-44.6-107.6
			c-28.7-28.7-67-44.6-107.6-44.6S198.7,16.6,170,45.3C141.2,74.1,125.4,112.3,125.4,153z M184.7,60c25.6-25.6,59.3-38.4,92.9-38.4
			c33.7,0,67.3,12.8,92.9,38.4c51.2,51.2,51.2,134.6,0,185.8c-51.2,51.2-134.6,51.2-185.8,0C133.4,194.6,133.4,111.3,184.7,60z"/>
	</g>
</g>
</svg>
