<svg width="24" height="24" viewBox="0 0 24 24" fill="none" xmlns="http://www.w3.org/2000/svg">
<path d="M23.7299 22.4259L18.748 17.444C20.5073 15.3488 21.3899 12.6554 21.2117 9.92531C21.0335 7.19526 19.8083 4.63939 17.7915 2.79068C15.7747 0.941967 13.1221 -0.0568546 10.3868 0.00250172C7.6515 0.0618581 5.04471 1.17481 3.11002 3.10927C1.17534 5.04372 0.0621221 7.65034 0.00252222 10.3856C-0.0570777 13.1208 0.94154 15.7734 2.79013 17.7903C4.63871 19.8072 7.19455 21.0326 9.92467 21.211C12.6548 21.3895 15.3484 20.5072 17.4438 18.748L22.4258 23.7299C22.5988 23.9029 22.8333 24 23.0779 24C23.3224 24 23.557 23.9029 23.7299 23.7299C23.9028 23.557 24 23.3225 24 23.0779C24 22.8333 23.9028 22.5988 23.7299 22.4259V22.4259ZM1.87009 10.6297C1.87009 8.89719 2.38386 7.20358 3.34642 5.76305C4.30899 4.32251 5.67711 3.19975 7.2778 2.53675C8.87848 1.87374 10.6398 1.70027 12.3391 2.03827C14.0384 2.37626 15.5993 3.21055 16.8244 4.43562C18.0495 5.6607 18.8838 7.22154 19.2218 8.92076C19.5598 10.62 19.3863 12.3813 18.7233 13.9819C18.0603 15.5826 16.9375 16.9506 15.4969 17.9132C14.0563 18.8757 12.3627 19.3895 10.6301 19.3895C8.30762 19.3868 6.081 18.4631 4.43874 16.8209C2.79649 15.1787 1.87272 12.9521 1.87009 10.6297V10.6297Z" fill="black"/>
</svg>
