<svg width="120" height="125" viewBox="0 0 120 125" fill="none" xmlns="http://www.w3.org/2000/svg">
<path d="M111.724 20.6896H74.4828V124.138H120V28.9654C120 26.7705 119.128 24.6655 117.576 23.1135C116.024 21.5615 113.919 20.6896 111.724 20.6896ZM91.0345 91.0344H82.7586V82.7585H91.0345V91.0344ZM91.0345 70.3447H82.7586V62.0689H91.0345V70.3447ZM91.0345 49.6551H82.7586V41.3792H91.0345V49.6551ZM107.586 91.0344H99.3103V82.7585H107.586V91.0344ZM107.586 70.3447H99.3103V62.0689H107.586V70.3447ZM107.586 49.6551H99.3103V41.3792H107.586V49.6551Z" fill="#78BE20"/>
<path d="M57.4345 0H8.77241C6.44582 0 4.21453 0.924233 2.56938 2.56938C0.924233 4.21453 0 6.44582 0 8.77241V124.138H20.6897V111.724H45.5172V124.138H66.2069V8.77241C66.2069 6.44582 65.2827 4.21453 63.6375 2.56938C61.9924 0.924233 59.7611 0 57.4345 0ZM20.6897 91.0345H12.4138V82.7586H20.6897V91.0345ZM20.6897 70.3448H12.4138V62.069H20.6897V70.3448ZM20.6897 49.6552H12.4138V41.3793H20.6897V49.6552ZM20.6897 28.9655H12.4138V20.6897H20.6897V28.9655ZM37.2414 91.0345H28.9655V82.7586H37.2414V91.0345ZM37.2414 70.3448H28.9655V62.069H37.2414V70.3448ZM37.2414 49.6552H28.9655V41.3793H37.2414V49.6552ZM37.2414 28.9655H28.9655V20.6897H37.2414V28.9655ZM53.7931 91.0345H45.5172V82.7586H53.7931V91.0345ZM53.7931 70.3448H45.5172V62.069H53.7931V70.3448ZM53.7931 49.6552H45.5172V41.3793H53.7931V49.6552ZM53.7931 28.9655H45.5172V20.6897H53.7931V28.9655Z" fill="#005EB8"/>
</svg>
