<svg width="120" height="128" viewBox="0 0 120 128" fill="none" xmlns="http://www.w3.org/2000/svg">
<path d="M112 127.778H104C101.75 127.778 99.8542 127.008 98.3125 125.469C96.7708 123.93 96 122.038 96 119.792V111.806C96 109.643 96.7708 107.771 98.3125 106.19C99.8542 104.61 101.75 103.819 104 103.819V71.875H64V103.819C66.1667 103.819 68.0417 104.61 69.625 106.19C71.2083 107.771 72 109.643 72 111.806V119.792C72 122.038 71.2083 123.93 69.625 125.469C68.0417 127.008 66.1667 127.778 64 127.778H56C53.75 127.778 51.8542 127.008 50.3125 125.469C48.7708 123.93 48 122.038 48 119.792V111.806C48 109.643 48.7708 107.771 50.3125 106.19C51.8542 104.61 53.75 103.819 56 103.819V71.875H16V103.819C18.1667 103.819 20.0417 104.61 21.625 106.19C23.2083 107.771 24 109.643 24 111.806V119.792C24 122.038 23.2083 123.93 21.625 125.469C20.0417 127.008 18.1667 127.778 16 127.778H8C5.75 127.778 3.85417 127.008 2.3125 125.469C0.770833 123.93 0 122.038 0 119.792V111.806C0 109.643 0.770833 107.771 2.3125 106.19C3.85417 104.61 5.75 103.819 8 103.819V67.8819C8 66.8005 8.39583 65.8646 9.1875 65.0743C9.97917 64.284 10.9167 63.8889 12 63.8889H56V39.9306H48C45.75 39.9306 43.8542 39.1611 42.3125 37.6221C40.7708 36.0831 40 34.1905 40 31.9444V7.98611C40 5.82321 40.7708 3.95146 42.3125 2.37088C43.8542 0.790292 45.75 0 48 0H72C74.1667 0 76.0417 0.790292 77.625 2.37088C79.2083 3.95146 80 5.82321 80 7.98611V31.9444C80 34.1905 79.2083 36.0831 77.625 37.6221C76.0417 39.1611 74.1667 39.9306 72 39.9306H64V63.8889H108C109.083 63.8889 110.021 64.284 110.812 65.0743C111.604 65.8646 112 66.8005 112 67.8819V103.819C114.167 103.819 116.042 104.61 117.625 106.19C119.208 107.771 120 109.643 120 111.806V119.792C120 122.038 119.208 123.93 117.625 125.469C116.042 127.008 114.167 127.778 112 127.778Z" fill="#00A499"/>
</svg>
