<svg width="120" height="115" viewBox="0 0 120 115" fill="none" xmlns="http://www.w3.org/2000/svg">
<path d="M104.005 1.47896e-06C100.544 -0.0014889 97.175 1.12346 94.4056 3.20577C91.6362 5.28808 89.6159 8.21524 88.6482 11.5473C87.6805 14.8793 87.8177 18.4362 89.0393 21.6834C90.2609 24.9305 92.5008 27.6924 95.4224 29.554L84.9855 66.1742C84.6615 66.1535 84.337 66.1426 84.0123 66.1416C80.5718 66.1379 77.2227 67.2523 74.4673 69.3179L55.1854 53.2097C56.0983 50.4945 56.2687 47.5837 55.679 44.7801C55.0893 41.9766 53.761 39.3826 51.8322 37.2681C49.9035 35.1536 47.4448 33.5959 44.7119 32.7569C41.9791 31.918 39.0719 31.8284 36.2928 32.4977C33.5137 33.1669 30.9643 34.5704 28.9098 36.5622C26.8552 38.5541 25.3706 41.0614 24.6103 43.8234C23.8501 46.5855 23.842 49.5012 24.5869 52.2675C25.3318 55.0337 26.8025 57.5493 28.8459 59.5525L17.5268 82.2481C17.0311 82.2009 16.5335 82.1768 16.0356 82.176C12.2038 82.171 8.49729 83.5435 5.58878 86.0443C2.68028 88.5452 0.762585 92.0085 0.183794 95.8057C-0.394998 99.603 0.403478 103.482 2.43428 106.74C4.46509 109.997 7.59362 112.417 11.252 113.559C14.9104 114.702 18.8561 114.491 22.373 112.966C25.8898 111.441 28.7447 108.703 30.4195 105.248C32.0942 101.793 32.4777 97.8504 31.5005 94.1362C30.5232 90.4219 28.2499 87.182 25.0932 85.0045L35.7896 63.5614C38.3879 64.2799 41.1254 64.3269 43.7467 63.698C46.368 63.069 48.7877 61.7846 50.7799 59.9647L69.4485 75.561C68.1808 78.3617 67.7433 81.4687 68.1881 84.5117C68.6329 87.5547 69.9413 90.4053 71.9573 92.7235C73.9733 95.0418 76.6118 96.7299 79.5583 97.5866C82.5047 98.4433 85.6348 98.4324 88.5752 97.5553C91.5157 96.6781 94.1425 94.9718 96.1424 92.6396C98.1423 90.3074 99.431 87.4478 99.8548 84.4018C100.279 81.3558 99.8196 78.2518 98.5325 75.4601C97.2455 72.6683 95.1847 70.3065 92.5959 68.6563L103.032 32.0361C103.354 32.0556 103.678 32.0687 104.005 32.0687C108.247 32.0687 112.316 30.3793 115.315 27.3723C118.315 24.3653 120 20.2869 120 16.0343C120 11.7818 118.315 7.70337 115.315 4.69635C112.316 1.68933 108.247 1.47896e-06 104.005 1.47896e-06ZM16.0356 106.227C14.4539 106.227 12.9077 105.757 11.5925 104.876C10.2774 103.995 9.25236 102.743 8.64707 101.278C8.04177 99.8134 7.8834 98.2014 8.19198 96.6462C8.50055 95.091 9.26222 93.6625 10.3807 92.5413C11.4991 91.4201 12.9241 90.6565 14.4754 90.3472C16.0267 90.0378 17.6347 90.1966 19.096 90.8034C20.5573 91.4102 21.8063 92.4378 22.6851 93.7562C23.5638 95.0746 24.0328 96.6246 24.0328 98.2103C24.0305 100.336 23.1871 102.374 21.6879 103.877C20.1886 105.38 18.1559 106.225 16.0356 106.227ZM40.0274 56.1202C38.4457 56.1202 36.8995 55.65 35.5843 54.769C34.2692 53.8881 33.2441 52.636 32.6389 51.171C32.0336 49.7061 31.8752 48.0941 32.1838 46.5389C32.4923 44.9838 33.254 43.5552 34.3724 42.434C35.4909 41.3128 36.9159 40.5492 38.4672 40.2399C40.0185 39.9305 41.6265 40.0893 43.0878 40.6961C44.5491 41.3029 45.7981 42.3305 46.6768 43.6489C47.5556 44.9673 48.0246 46.5174 48.0246 48.103C48.0222 50.2286 47.1789 52.2664 45.6797 53.7694C44.1804 55.2724 42.1476 56.1178 40.0274 56.1202ZM84.0123 90.1931C82.4306 90.1931 80.8844 89.7229 79.5693 88.842C78.2541 87.9611 77.2291 86.7089 76.6238 85.244C76.0185 83.7791 75.8601 82.1671 76.1687 80.6119C76.4773 79.0567 77.239 77.6282 78.3574 76.507C79.4758 75.3857 80.9008 74.6222 82.4521 74.3128C84.0034 74.0035 85.6114 74.1623 87.0727 74.7691C88.534 75.3759 89.783 76.4034 90.6618 77.7219C91.5405 79.0403 92.0096 80.5903 92.0096 82.176C92.0072 84.3015 91.1639 86.3393 89.6646 87.8423C88.1653 89.3453 86.1326 90.1907 84.0123 90.1931ZM104.005 24.0515C102.424 24.0515 100.878 23.5813 99.5624 22.7004C98.2473 21.8194 97.2223 20.5673 96.617 19.1024C96.0117 17.6374 95.8533 16.0254 96.1619 14.4703C96.4705 12.9151 97.2321 11.4866 98.3506 10.3653C99.469 9.24412 100.894 8.48056 102.445 8.17122C103.997 7.86187 105.605 8.02064 107.066 8.62744C108.527 9.23424 109.776 10.2618 110.655 11.5802C111.534 12.8987 112.003 14.4487 112.003 16.0343C112 18.1599 111.157 20.1977 109.658 21.7007C108.158 23.2037 106.126 24.0491 104.005 24.0515Z" fill="#71C5E8"/>
</svg>
