<svg width="120" height="99" viewBox="0 0 120 99" fill="none" xmlns="http://www.w3.org/2000/svg">
<path d="M62.484 10.9477H114C115.591 10.9477 117.117 11.5244 118.243 12.551C119.368 13.5775 120 14.9698 120 16.4216V93.0556C120 94.5073 119.368 95.8996 118.243 96.9262C117.117 97.9527 115.591 98.5294 114 98.5294H6C4.4087 98.5294 2.88258 97.9527 1.75736 96.9262C0.632141 95.8996 0 94.5073 0 93.0556V5.47386C0 4.0221 0.632141 2.6298 1.75736 1.60326C2.88258 0.576708 4.4087 0 6 0H50.484L62.484 10.9477ZM54 32.8431V43.7909H66V32.8431H54ZM54 49.2647V76.634H66V49.2647H54Z" fill="#F2A900"/>
</svg>
