<svg width="24" height="34" viewBox="0 0 24 34" fill="none" xmlns="http://www.w3.org/2000/svg">
<path d="M5.89453 28.3027H2.51953V30.5879H6.48047V32H0.761719V23.4688H6.46875V24.8926H2.51953V26.9258H5.89453V28.3027ZM14.4492 32H12.6914L9.26953 26.3867V32H7.51172V23.4688H9.26953L12.6973 29.0938V23.4688H14.4492V32ZM22.7344 30.9219C22.418 31.3008 21.9707 31.5957 21.3926 31.8066C20.8145 32.0137 20.1738 32.1172 19.4707 32.1172C18.7324 32.1172 18.084 31.957 17.5254 31.6367C16.9707 31.3125 16.541 30.8438 16.2363 30.2305C15.9355 29.6172 15.7812 28.8965 15.7734 28.0684V27.4883C15.7734 26.6367 15.916 25.9004 16.2012 25.2793C16.4902 24.6543 16.9043 24.1777 17.4434 23.8496C17.9863 23.5176 18.6211 23.3516 19.3477 23.3516C20.3594 23.3516 21.1504 23.5938 21.7207 24.0781C22.291 24.5586 22.6289 25.2598 22.7344 26.1816H21.0234C20.9453 25.6934 20.7715 25.3359 20.502 25.1094C20.2363 24.8828 19.8691 24.7695 19.4004 24.7695C18.8027 24.7695 18.3477 24.9941 18.0352 25.4434C17.7227 25.8926 17.5645 26.5605 17.5605 27.4473V27.9922C17.5605 28.8867 17.7305 29.5625 18.0703 30.0195C18.4102 30.4766 18.9082 30.7051 19.5645 30.7051C20.2246 30.7051 20.6953 30.5645 20.9766 30.2832V28.8125H19.377V27.5176H22.7344V30.9219Z" fill="black"/>
<path d="M11.99 0C6.47 0 2 4.48 2 10C2 15.52 6.47 20 11.99 20C17.52 20 22 15.52 22 10C22 4.48 17.52 0 11.99 0ZM18.92 6H15.97C15.657 4.76146 15.1936 3.5659 14.59 2.44C16.4141 3.068 17.9512 4.33172 18.92 6ZM12 2.04C12.83 3.24 13.48 4.57 13.91 6H10.09C10.52 4.57 11.17 3.24 12 2.04ZM4.26 12C4.1 11.36 4 10.69 4 10C4 9.31 4.1 8.64 4.26 8H7.64C7.56 8.66 7.5 9.32 7.5 10C7.5 10.68 7.56 11.34 7.64 12H4.26ZM5.08 14H8.03C8.35 15.25 8.81 16.45 9.41 17.56C7.58397 16.9354 6.04583 15.6708 5.08 14ZM8.03 6H5.08C6.04583 4.32918 7.58397 3.06457 9.41 2.44C8.80643 3.5659 8.34298 4.76146 8.03 6ZM12 17.96C11.17 16.76 10.52 15.43 10.09 14H13.91C13.48 15.43 12.83 16.76 12 17.96ZM14.34 12H9.66C9.57 11.34 9.5 10.68 9.5 10C9.5 9.32 9.57 8.65 9.66 8H14.34C14.43 8.65 14.5 9.32 14.5 10C14.5 10.68 14.43 11.34 14.34 12ZM14.59 17.56C15.19 16.45 15.65 15.25 15.97 14H18.92C17.9512 15.6683 16.4141 16.932 14.59 17.56ZM16.36 12C16.44 11.34 16.5 10.68 16.5 10C16.5 9.32 16.44 8.66 16.36 8H19.74C19.9 8.64 20 9.31 20 10C20 10.69 19.9 11.36 19.74 12H16.36Z" fill="black"/>
</svg>
