<svg width="24" height="34" viewBox="0 0 24 34" fill="none" xmlns="http://www.w3.org/2000/svg">
<path d="M3.43359 28.5781L2.51953 29.5625V32H0.761719V23.4688H2.51953V27.3359L3.29297 26.2754L5.4668 23.4688H7.62891L4.59961 27.2598L7.7168 32H5.625L3.43359 28.5781ZM15.1992 27.9277C15.1992 28.7676 15.0508 29.5039 14.7539 30.1367C14.457 30.7695 14.0312 31.2578 13.4766 31.6016C12.9258 31.9453 12.293 32.1172 11.5781 32.1172C10.8711 32.1172 10.2402 31.9473 9.68555 31.6074C9.13086 31.2676 8.70117 30.7832 8.39648 30.1543C8.0918 29.5215 7.9375 28.7949 7.93359 27.9746V27.5527C7.93359 26.7129 8.08398 25.9746 8.38477 25.3379C8.68945 24.6973 9.11719 24.207 9.66797 23.8672C10.2227 23.5234 10.8555 23.3516 11.5664 23.3516C12.2773 23.3516 12.9082 23.5234 13.459 23.8672C14.0137 24.207 14.4414 24.6973 14.7422 25.3379C15.0469 25.9746 15.1992 26.7109 15.1992 27.5469V27.9277ZM13.418 27.541C13.418 26.6465 13.2578 25.9668 12.9375 25.502C12.6172 25.0371 12.1602 24.8047 11.5664 24.8047C10.9766 24.8047 10.5215 25.0352 10.2012 25.4961C9.88086 25.9531 9.71875 26.625 9.71484 27.5117V27.9277C9.71484 28.7988 9.875 29.4746 10.1953 29.9551C10.5156 30.4355 10.9766 30.6758 11.5781 30.6758C12.168 30.6758 12.6211 30.4453 12.9375 29.9844C13.2539 29.5195 13.4141 28.8438 13.418 27.957V27.541ZM19.6348 28.877H18.2344V32H16.4766V23.4688H19.6465C20.6543 23.4688 21.4316 23.6934 21.9785 24.1426C22.5254 24.5918 22.7988 25.2266 22.7988 26.0469C22.7988 26.6289 22.6719 27.1152 22.418 27.5059C22.168 27.8926 21.7871 28.2012 21.2754 28.4316L23.1211 31.918V32H21.2344L19.6348 28.877ZM18.2344 27.4531H19.6523C20.0938 27.4531 20.4355 27.3418 20.6777 27.1191C20.9199 26.8926 21.041 26.582 21.041 26.1875C21.041 25.7852 20.9258 25.4688 20.6953 25.2383C20.4688 25.0078 20.1191 24.8926 19.6465 24.8926H18.2344V27.4531Z" fill="black"/>
<path d="M11.99 0C6.47 0 2 4.48 2 10C2 15.52 6.47 20 11.99 20C17.52 20 22 15.52 22 10C22 4.48 17.52 0 11.99 0ZM18.92 6H15.97C15.657 4.76146 15.1936 3.5659 14.59 2.44C16.4141 3.068 17.9512 4.33172 18.92 6ZM12 2.04C12.83 3.24 13.48 4.57 13.91 6H10.09C10.52 4.57 11.17 3.24 12 2.04ZM4.26 12C4.1 11.36 4 10.69 4 10C4 9.31 4.1 8.64 4.26 8H7.64C7.56 8.66 7.5 9.32 7.5 10C7.5 10.68 7.56 11.34 7.64 12H4.26ZM5.08 14H8.03C8.35 15.25 8.81 16.45 9.41 17.56C7.58397 16.9354 6.04583 15.6708 5.08 14ZM8.03 6H5.08C6.04583 4.32918 7.58397 3.06457 9.41 2.44C8.80643 3.5659 8.34298 4.76146 8.03 6ZM12 17.96C11.17 16.76 10.52 15.43 10.09 14H13.91C13.48 15.43 12.83 16.76 12 17.96ZM14.34 12H9.66C9.57 11.34 9.5 10.68 9.5 10C9.5 9.32 9.57 8.65 9.66 8H14.34C14.43 8.65 14.5 9.32 14.5 10C14.5 10.68 14.43 11.34 14.34 12ZM14.59 17.56C15.19 16.45 15.65 15.25 15.97 14H18.92C17.9512 15.6683 16.4141 16.932 14.59 17.56ZM16.36 12C16.44 11.34 16.5 10.68 16.5 10C16.5 9.32 16.44 8.66 16.36 8H19.74C19.9 8.64 20 9.31 20 10C20 10.69 19.9 11.36 19.74 12H16.36Z" fill="black"/>
</svg>
