<svg width="15" height="16" viewBox="0 0 15 16" fill="none" xmlns="http://www.w3.org/2000/svg">
<path d="M13.9741 6.49738C14.2429 6.64543 14.4672 6.86293 14.6233 7.12719C14.7795 7.39145 14.8619 7.69278 14.8619 7.99974C14.8619 8.3067 14.7795 8.60803 14.6233 8.87229C14.4672 9.13656 14.2429 9.35406 13.9741 9.50211L2.54053 15.7883C2.27936 15.9317 1.98533 16.0046 1.68742 15.9998C1.3895 15.995 1.09797 15.9127 0.841559 15.7609C0.585143 15.6092 0.372685 15.3932 0.225117 15.1344C0.0775485 14.8755 -3.84332e-05 14.5827 1.42823e-08 14.2848V1.71473C5.1038e-05 1.41671 0.0777606 1.12385 0.225469 0.865007C0.373178 0.606165 0.585788 0.390281 0.842342 0.238634C1.0989 0.0869867 1.39054 0.00481039 1.68852 0.000204849C1.98651 -0.00440069 2.28055 0.0687235 2.54167 0.21237L13.9752 6.49738H13.9741Z" fill="white"/>
</svg>
