<svg width="26" height="26" viewBox="0 0 26 26" fill="none" xmlns="http://www.w3.org/2000/svg">
<path d="M26 13C26 13.5045 25.5911 13.9134 25.0866 13.9134H3.09069L8.85254 19.6699C9.02778 19.8452 9.11806 20.0788 9.11806 20.3125C9.11806 20.5462 9.02778 20.7798 8.85254 20.9551C8.49673 21.3109 7.91789 21.3109 7.56209 20.9551L0.254906 13.6426C-0.0849628 13.3027 -0.0849628 12.6973 0.254906 12.3521L7.5674 5.04493C7.9232 4.68913 8.50204 4.68913 8.85785 5.04493C9.21365 5.40073 9.21365 5.97957 8.85785 6.33538L3.10131 12.0919H25.0919C25.5964 12.0866 26 12.4955 26 13Z" fill="white"/>
</svg>
