<svg width="26" height="26" viewBox="0 0 26 26" fill="none" xmlns="http://www.w3.org/2000/svg">
<path d="M0 13C0 13.5045 0.408905 13.9134 0.913399 13.9134H22.9093L17.1475 19.6699C16.9722 19.8452 16.8819 20.0788 16.8819 20.3125C16.8819 20.5462 16.9722 20.7798 17.1475 20.9551C17.5033 21.3109 18.0821 21.3109 18.4379 20.9551L25.7451 13.6426C26.085 13.3027 26.085 12.6973 25.7451 12.3521L18.4326 5.04493C18.0768 4.68913 17.498 4.68913 17.1422 5.04493C16.7864 5.40073 16.7864 5.97957 17.1422 6.33538L22.8987 12.0919H0.908088C0.403595 12.0866 0 12.4955 0 13Z" fill="white"/>
</svg>
