<svg width="4" height="18" viewBox="0 0 4 18" fill="none" xmlns="http://www.w3.org/2000/svg">
<path d="M2 4.125C2.89746 4.125 3.625 3.39746 3.625 2.5C3.625 1.60254 2.89746 0.875 2 0.875C1.10254 0.875 0.375 1.60254 0.375 2.5C0.375 3.39746 1.10254 4.125 2 4.125Z" fill="#00A499"/>
<path d="M2 10.625C2.89746 10.625 3.625 9.89746 3.625 9C3.625 8.10254 2.89746 7.375 2 7.375C1.10254 7.375 0.375 8.10254 0.375 9C0.375 9.89746 1.10254 10.625 2 10.625Z" fill="#00A499"/>
<path d="M2 17.125C2.89746 17.125 3.625 16.3975 3.625 15.5C3.625 14.6025 2.89746 13.875 2 13.875C1.10254 13.875 0.375 14.6025 0.375 15.5C0.375 16.3975 1.10254 17.125 2 17.125Z" fill="#00A499"/>
</svg>
