<svg width="18" height="18" viewBox="0 0 18 18" fill="none" xmlns="http://www.w3.org/2000/svg">
<path d="M17.7018 16.29L14.3163 12.9045C15.5643 11.2974 16.1529 9.27509 15.9622 7.24927C15.7716 5.22344 14.816 3.34643 13.2901 2.00036C11.7642 0.654286 9.78267 -0.0596467 7.74888 0.00390616C5.7151 0.067459 3.78199 0.903719 2.3431 2.34244C0.904217 3.78115 0.0677282 5.71417 0.00393568 7.74794C-0.0598569 9.78171 0.653843 11.7633 1.99973 13.2894C3.34563 14.8155 5.22253 15.7712 7.24833 15.9621C9.27413 16.153 11.2965 15.5647 12.9038 14.3169L16.2894 17.7024C16.3818 17.7963 16.492 17.8711 16.6135 17.9223C16.735 17.9735 16.8654 18.0001 16.9972 18.0006C17.1291 18.0012 17.2597 17.9756 17.3816 17.9254C17.5035 17.8752 17.6143 17.8014 17.7075 17.7081C17.8007 17.6149 17.8745 17.5042 17.9248 17.3823C17.975 17.2603 18.0005 17.1297 18 16.9979C17.9995 16.866 17.9728 16.7356 17.9216 16.6141C17.8704 16.4926 17.7957 16.3825 17.7017 16.29H17.7018ZM2.01531 8.00768C2.01531 6.82251 2.36675 5.66397 3.02519 4.67854C3.68363 3.69311 4.6195 2.92507 5.71445 2.47152C6.8094 2.01798 8.01425 1.89932 9.17664 2.13053C10.339 2.36174 11.4068 2.93245 12.2448 3.77049C13.0828 4.60853 13.6535 5.67625 13.8847 6.83864C14.116 8.00103 13.9973 9.20588 13.5438 10.3008C13.0902 11.3958 12.3222 12.3316 11.3367 12.9901C10.3513 13.6485 9.19276 14 8.0076 14C6.41889 13.9982 4.89577 13.3663 3.77238 12.2429C2.649 11.1195 2.0171 9.59638 2.01531 8.00768Z" fill="black"/>
</svg>
