<svg width="18" height="4" viewBox="0 0 18 4" fill="none" xmlns="http://www.w3.org/2000/svg">
<path d="M13.875 2C13.875 2.89746 14.6025 3.625 15.5 3.625C16.3975 3.625 17.125 2.89746 17.125 2C17.125 1.10254 16.3975 0.375 15.5 0.375C14.6025 0.375 13.875 1.10254 13.875 2Z" fill="#005EB8"/>
<path d="M7.375 2C7.375 2.89746 8.10254 3.625 9 3.625C9.89746 3.625 10.625 2.89746 10.625 2C10.625 1.10254 9.89746 0.375 9 0.375C8.10254 0.375 7.375 1.10254 7.375 2Z" fill="#00A499"/>
<path d="M0.875 2C0.875 2.89746 1.60254 3.625 2.5 3.625C3.39746 3.625 4.125 2.89746 4.125 2C4.125 1.10254 3.39746 0.375 2.5 0.375C1.60254 0.375 0.875 1.10254 0.875 2Z" fill="#F2A900"/>
</svg>
